<mxfile host="app.diagrams.net" modified="2023-05-16T03:36:21.403Z" agent="Mozilla/5.0 (Windows NT 10.0; Win64; x64) AppleWebKit/537.36 (KHTML, like Gecko) Chrome/113.0.0.0 Safari/537.36" etag="LswD6v5BgSOA1dgChMKE" version="21.2.9" type="github">
  <diagram id="prtHgNgQTEPvFCAcTncT" name="Page-1">
    <mxGraphModel dx="882" dy="606" grid="1" gridSize="10" guides="1" tooltips="1" connect="1" arrows="1" fold="1" page="1" pageScale="1" pageWidth="827" pageHeight="1169" math="0" shadow="0">
      <root>
        <mxCell id="0" />
        <mxCell id="1" parent="0" />
        <mxCell id="dNxyNK7c78bLwvsdeMH5-11" value="System tech stack" style="swimlane;html=1;startSize=20;horizontal=1;containerType=tree;glass=0;" parent="1" vertex="1">
          <mxGeometry x="80" y="80" width="430" height="280" as="geometry" />
        </mxCell>
        <mxCell id="v0GfBIbAwhlWIz3LQ5ey-3" value="Vue.js" style="rounded=0;whiteSpace=wrap;html=1;labelPosition=center;verticalLabelPosition=middle;align=center;verticalAlign=top;" vertex="1" parent="dNxyNK7c78bLwvsdeMH5-11">
          <mxGeometry x="10" y="30" width="180" height="140" as="geometry" />
        </mxCell>
        <mxCell id="v0GfBIbAwhlWIz3LQ5ey-4" value="HTML" style="rounded=1;whiteSpace=wrap;html=1;" vertex="1" parent="dNxyNK7c78bLwvsdeMH5-11">
          <mxGeometry x="10" y="180" width="70" height="40" as="geometry" />
        </mxCell>
        <mxCell id="v0GfBIbAwhlWIz3LQ5ey-6" value="Node.js" style="rounded=1;whiteSpace=wrap;html=1;" vertex="1" parent="dNxyNK7c78bLwvsdeMH5-11">
          <mxGeometry x="180" y="180" width="100" height="40" as="geometry" />
        </mxCell>
        <mxCell id="v0GfBIbAwhlWIz3LQ5ey-7" value="JavaScript" style="rounded=1;whiteSpace=wrap;html=1;" vertex="1" parent="dNxyNK7c78bLwvsdeMH5-11">
          <mxGeometry x="10" y="230" width="270" height="40" as="geometry" />
        </mxCell>
        <mxCell id="v0GfBIbAwhlWIz3LQ5ey-5" value="CSS" style="rounded=1;whiteSpace=wrap;html=1;" vertex="1" parent="dNxyNK7c78bLwvsdeMH5-11">
          <mxGeometry x="90" y="180" width="80" height="40" as="geometry" />
        </mxCell>
        <mxCell id="v0GfBIbAwhlWIz3LQ5ey-8" value="CSS" style="rounded=0;whiteSpace=wrap;html=1;labelPosition=center;verticalLabelPosition=middle;align=center;verticalAlign=top;" vertex="1" parent="dNxyNK7c78bLwvsdeMH5-11">
          <mxGeometry x="200" y="30" width="80" height="140" as="geometry" />
        </mxCell>
        <mxCell id="v0GfBIbAwhlWIz3LQ5ey-11" value="Python" style="rounded=1;whiteSpace=wrap;html=1;" vertex="1" parent="dNxyNK7c78bLwvsdeMH5-11">
          <mxGeometry x="290" y="230" width="130" height="40" as="geometry" />
        </mxCell>
        <mxCell id="v0GfBIbAwhlWIz3LQ5ey-12" value="Flask" style="rounded=1;whiteSpace=wrap;html=1;" vertex="1" parent="dNxyNK7c78bLwvsdeMH5-11">
          <mxGeometry x="290" y="180" width="130" height="40" as="geometry" />
        </mxCell>
        <mxCell id="v0GfBIbAwhlWIz3LQ5ey-13" value="Deploy" style="rounded=0;whiteSpace=wrap;html=1;verticalAlign=top;" vertex="1" parent="dNxyNK7c78bLwvsdeMH5-11">
          <mxGeometry x="290" y="30" width="130" height="140" as="geometry" />
        </mxCell>
        <mxCell id="v0GfBIbAwhlWIz3LQ5ey-14" value="Vue-Router" style="rounded=1;whiteSpace=wrap;html=1;" vertex="1" parent="dNxyNK7c78bLwvsdeMH5-11">
          <mxGeometry x="20" y="60" width="70" height="40" as="geometry" />
        </mxCell>
        <mxCell id="v0GfBIbAwhlWIz3LQ5ey-15" value="Vuex" style="rounded=1;whiteSpace=wrap;html=1;" vertex="1" parent="dNxyNK7c78bLwvsdeMH5-11">
          <mxGeometry x="55" y="110" width="90" height="40" as="geometry" />
        </mxCell>
        <mxCell id="v0GfBIbAwhlWIz3LQ5ey-16" value="Vite" style="rounded=1;whiteSpace=wrap;html=1;" vertex="1" parent="dNxyNK7c78bLwvsdeMH5-11">
          <mxGeometry x="110" y="60" width="70" height="40" as="geometry" />
        </mxCell>
        <mxCell id="v0GfBIbAwhlWIz3LQ5ey-17" value="Sass" style="rounded=1;whiteSpace=wrap;html=1;" vertex="1" parent="dNxyNK7c78bLwvsdeMH5-11">
          <mxGeometry x="215" y="60" width="50" height="40" as="geometry" />
        </mxCell>
        <mxCell id="v0GfBIbAwhlWIz3LQ5ey-20" value="Docker" style="rounded=1;whiteSpace=wrap;html=1;" vertex="1" parent="dNxyNK7c78bLwvsdeMH5-11">
          <mxGeometry x="300" y="60" width="110" height="40" as="geometry" />
        </mxCell>
        <mxCell id="v0GfBIbAwhlWIz3LQ5ey-21" value="Jenkins" style="rounded=1;whiteSpace=wrap;html=1;" vertex="1" parent="dNxyNK7c78bLwvsdeMH5-11">
          <mxGeometry x="300" y="110" width="110" height="40" as="geometry" />
        </mxCell>
      </root>
    </mxGraphModel>
  </diagram>
</mxfile>
